<svg width="351" height="301" viewBox="0 0 351 301" fill="none" xmlns="http://www.w3.org/2000/svg">
<path d="M75.1 86.045C72.2033 85.8617 69.38 85.275 66.63 84.285C63.88 83.295 61.46 81.9567 59.37 80.27C57.3167 78.5467 55.7767 76.53 54.75 74.22L64.485 70.04C64.9617 71.03 65.7867 72.0017 66.96 72.955C68.17 73.9083 69.5817 74.6967 71.195 75.32C72.8083 75.9067 74.495 76.2 76.255 76.2C77.9783 76.2 79.5733 75.9617 81.04 75.485C82.5433 74.9717 83.7717 74.2017 84.725 73.175C85.6783 72.1483 86.155 70.92 86.155 69.49C86.155 67.8767 85.605 66.63 84.505 65.75C83.4417 64.8333 82.1033 64.1367 80.49 63.66C78.8767 63.1833 77.2633 62.725 75.65 62.285C72.0567 61.4783 68.7567 60.3783 65.75 58.985C62.78 57.555 60.415 55.74 58.655 53.54C56.895 51.3033 56.015 48.5717 56.015 45.345C56.015 41.825 56.9683 38.7817 58.875 36.215C60.7817 33.6117 63.275 31.6133 66.355 30.22C69.4717 28.8267 72.79 28.13 76.31 28.13C80.71 28.13 84.7433 29.065 88.41 30.935C92.0767 32.805 94.8817 35.3717 96.825 38.635L87.75 44.025C87.2 42.925 86.375 41.935 85.275 41.055C84.175 40.175 82.9283 39.4783 81.535 38.965C80.1417 38.415 78.6933 38.1033 77.19 38.03C75.32 37.9567 73.5783 38.1767 71.965 38.69C70.3883 39.1667 69.1233 39.9367 68.17 41C67.2167 42.0633 66.74 43.42 66.74 45.07C66.74 46.6833 67.3083 47.8933 68.445 48.7C69.5817 49.47 71.0117 50.0933 72.735 50.57C74.495 51.0467 76.2917 51.5783 78.125 52.165C81.3883 53.1917 84.45 54.4567 87.31 55.96C90.17 57.4267 92.48 59.2417 94.24 61.405C96 63.5683 96.8433 66.2083 96.77 69.325C96.77 72.7717 95.725 75.7967 93.635 78.4C91.5817 81.0033 88.905 82.9833 85.605 84.34C82.305 85.6967 78.8033 86.265 75.1 86.045Z" fill="black"/>
<path d="M135.228 41.44H123.678L123.623 85H112.183L112.238 41.44H103.493V30H112.238L112.183 12.73H123.623L123.678 30H135.228V41.44Z" fill="black"/>
<path d="M167.986 86.43C162.926 86.43 158.306 85.1283 154.126 82.525C149.982 79.9217 146.664 76.4383 144.171 72.075C141.714 67.675 140.486 62.8167 140.486 57.5C140.486 53.4667 141.201 49.7083 142.631 46.225C144.061 42.705 146.022 39.625 148.516 36.985C151.046 34.3083 153.979 32.2183 157.316 30.715C160.652 29.2117 164.209 28.46 167.986 28.46C172.202 28.46 176.071 29.34 179.591 31.1C183.111 32.8233 186.117 35.225 188.611 38.305C191.104 41.3483 192.937 44.8683 194.111 48.865C195.284 52.825 195.632 57.0417 195.156 61.515H152.751C153.227 64.045 154.144 66.3367 155.501 68.39C156.894 70.4067 158.654 72.0017 160.781 73.175C162.944 74.3483 165.346 74.9533 167.986 74.99C170.772 74.99 173.302 74.2933 175.576 72.9C177.886 71.5067 179.774 69.5817 181.241 67.125L192.846 69.82C190.646 74.6967 187.327 78.6933 182.891 81.81C178.454 84.89 173.486 86.43 167.986 86.43ZM152.366 52.77H183.606C183.239 50.13 182.304 47.7467 180.801 45.62C179.334 43.4567 177.482 41.7517 175.246 40.505C173.046 39.2217 170.626 38.58 167.986 38.58C165.382 38.58 162.962 39.2033 160.726 40.45C158.526 41.6967 156.692 43.4017 155.226 45.565C153.796 47.6917 152.842 50.0933 152.366 52.77Z" fill="black"/>
<path d="M203.512 299.5V0H214.952V299.5H203.512Z" fill="black"/>
<path d="M228.112 299.5V246L225.5 243V223L228.112 218.5V2.5H239.552C239.552 88.6978 239.552 146.94 239.552 218.5C239.552 219.166 224 226.832 224 227.5C224 227.5 224 229.977 224 238C224 238.665 239.552 245.332 239.552 246C239.552 263.357 239.5 279.691 239.5 299.5H228.112Z" fill="black"/>
<path d="M294.749 30H306.189V85H294.694L294.254 77.025C292.641 79.8483 290.459 82.1217 287.709 83.845C284.959 85.5683 281.714 86.43 277.974 86.43C273.941 86.43 270.146 85.6783 266.589 84.175C263.033 82.635 259.898 80.5083 257.184 77.795C254.508 75.0817 252.418 71.965 250.914 68.445C249.411 64.8883 248.659 61.075 248.659 57.005C248.659 53.0817 249.393 49.3967 250.859 45.95C252.326 42.4667 254.361 39.4233 256.964 36.82C259.568 34.2167 262.574 32.1817 265.984 30.715C269.431 29.2117 273.116 28.46 277.039 28.46C281.036 28.46 284.556 29.3767 287.599 31.21C290.679 33.0067 293.228 35.3167 295.244 38.14L294.749 30ZM277.699 75.375C280.926 75.375 283.749 74.5867 286.169 73.01C288.589 71.3967 290.459 69.2333 291.779 66.52C293.136 63.8067 293.814 60.8 293.814 57.5C293.814 54.1633 293.136 51.1383 291.779 48.425C290.423 45.7117 288.534 43.5667 286.114 41.99C283.731 40.3767 280.926 39.57 277.699 39.57C274.509 39.57 271.594 40.3767 268.954 41.99C266.314 43.6033 264.224 45.7667 262.684 48.48C261.144 51.1933 260.374 54.2 260.374 57.5C260.374 60.8367 261.163 63.8617 262.739 66.575C264.353 69.2517 266.461 71.3967 269.064 73.01C271.704 74.5867 274.583 75.375 277.699 75.375Z" fill="black"/>
<path d="M317.164 85V30H328.604V35.83C330.511 33.5567 332.858 31.76 335.644 30.44C338.431 29.12 341.438 28.46 344.664 28.46C346.718 28.46 348.753 28.735 350.769 29.285L346.204 40.835C344.774 40.285 343.344 40.01 341.914 40.01C339.494 40.01 337.276 40.615 335.259 41.825C333.243 42.9983 331.629 44.5933 330.419 46.61C329.209 48.6267 328.604 50.8633 328.604 53.32V85H317.164Z" fill="black"/>
<path d="M39.515 179.38L49.745 184.935C47.2517 188.418 44.08 191.205 40.23 193.295C36.4167 195.385 32.2733 196.43 27.8 196.43C22.74 196.43 18.12 195.128 13.94 192.525C9.79667 189.922 6.47834 186.438 3.985 182.075C1.52834 177.675 0.300003 172.817 0.300003 167.5C0.300003 163.467 1.015 159.708 2.445 156.225C3.875 152.705 5.83667 149.625 8.33 146.985C10.86 144.308 13.7933 142.218 17.13 140.715C20.4667 139.212 24.0233 138.46 27.8 138.46C32.2733 138.46 36.4167 139.505 40.23 141.595C44.08 143.685 47.2517 146.49 49.745 150.01L39.515 155.565C37.975 153.732 36.1783 152.338 34.125 151.385C32.0717 150.395 29.9633 149.9 27.8 149.9C24.7933 149.9 22.0617 150.725 19.605 152.375C17.185 153.988 15.26 156.133 13.83 158.81C12.4367 161.45 11.74 164.347 11.74 167.5C11.74 170.617 12.455 173.513 13.885 176.19C15.315 178.83 17.24 180.957 19.66 182.57C22.1167 184.183 24.83 184.99 27.8 184.99C30.0733 184.99 32.2367 184.477 34.29 183.45C36.3433 182.423 38.085 181.067 39.515 179.38Z" fill="black"/>
<path d="M59.6742 195V140H71.1142V145.83C73.0209 143.557 75.3676 141.76 78.1542 140.44C80.9409 139.12 83.9476 138.46 87.1742 138.46C89.2276 138.46 91.2626 138.735 93.2792 139.285L88.7142 150.835C87.2842 150.285 85.8542 150.01 84.4242 150.01C82.0042 150.01 79.7859 150.615 77.7692 151.825C75.7526 152.998 74.1392 154.593 72.9292 156.61C71.7192 158.627 71.1142 160.863 71.1142 163.32V195H59.6742Z" fill="black"/>
<path d="M139.847 140H151.287V195H139.792L139.352 187.025C137.739 189.848 135.557 192.122 132.807 193.845C130.057 195.568 126.812 196.43 123.072 196.43C119.039 196.43 115.244 195.678 111.687 194.175C108.13 192.635 104.995 190.508 102.282 187.795C99.6054 185.082 97.5154 181.965 96.012 178.445C94.5087 174.888 93.757 171.075 93.757 167.005C93.757 163.082 94.4904 159.397 95.957 155.95C97.4237 152.467 99.4587 149.423 102.062 146.82C104.665 144.217 107.672 142.182 111.082 140.715C114.529 139.212 118.214 138.46 122.137 138.46C126.134 138.46 129.654 139.377 132.697 141.21C135.777 143.007 138.325 145.317 140.342 148.14L139.847 140ZM122.797 185.375C126.024 185.375 128.847 184.587 131.267 183.01C133.687 181.397 135.557 179.233 136.877 176.52C138.234 173.807 138.912 170.8 138.912 167.5C138.912 164.163 138.234 161.138 136.877 158.425C135.52 155.712 133.632 153.567 131.212 151.99C128.829 150.377 126.024 149.57 122.797 149.57C119.607 149.57 116.692 150.377 114.052 151.99C111.412 153.603 109.322 155.767 107.782 158.48C106.242 161.193 105.472 164.2 105.472 167.5C105.472 170.837 106.26 173.862 107.837 176.575C109.45 179.252 111.559 181.397 114.162 183.01C116.802 184.587 119.68 185.375 122.797 185.375Z" fill="black"/>
<path d="M204.033 112.5H214V195H204.033V186.915C202.236 189.775 199.89 192.085 196.993 193.845C194.096 195.568 190.705 196.43 186.818 196.43C182.821 196.43 179.081 195.678 175.598 194.175C172.115 192.672 169.035 190.6 166.358 187.96C163.718 185.283 161.646 182.203 160.143 178.72C158.64 175.237 157.888 171.497 157.888 167.5C157.888 163.503 158.64 159.763 160.143 156.28C161.646 152.76 163.718 149.68 166.358 147.04C169.035 144.363 172.115 142.273 175.598 140.77C179.081 139.267 182.821 138.515 186.818 138.515C190.705 138.515 194.096 139.395 196.993 141.155C199.89 142.878 202.236 145.152 204.033 147.975V112.5ZM186.928 185.375C190.155 185.375 192.978 184.587 195.398 183.01C197.818 181.397 199.688 179.233 201.008 176.52C202.365 173.807 203.043 170.8 203.043 167.5C203.043 164.163 202.365 161.138 201.008 158.425C199.651 155.712 197.763 153.567 195.343 151.99C192.96 150.377 190.155 149.57 186.928 149.57C183.738 149.57 180.823 150.377 178.183 151.99C175.58 153.603 173.49 155.767 171.913 158.48C170.373 161.193 169.603 164.2 169.603 167.5C169.603 170.837 170.391 173.862 171.968 176.575C173.581 179.252 175.69 181.397 178.293 183.01C180.933 184.587 183.811 185.375 186.928 185.375Z" fill="black"/>
<path d="M228.649 195V112.5H238.5V195H228.649Z" fill="black"/>
<path d="M276.696 196.43C271.636 196.43 267.017 195.128 262.837 192.525C258.693 189.922 255.375 186.438 252.881 182.075C250.425 177.675 249.196 172.817 249.196 167.5C249.196 163.467 249.911 159.708 251.341 156.225C252.771 152.705 254.733 149.625 257.226 146.985C259.756 144.308 262.69 142.218 266.026 140.715C269.363 139.212 272.92 138.46 276.696 138.46C280.913 138.46 284.781 139.34 288.301 141.1C291.821 142.823 294.828 145.225 297.321 148.305C299.815 151.348 301.648 154.868 302.821 158.865C303.995 162.825 304.343 167.042 303.867 171.515H261.462C261.938 174.045 262.855 176.337 264.212 178.39C265.605 180.407 267.365 182.002 269.492 183.175C271.655 184.348 274.056 184.953 276.696 184.99C279.483 184.99 282.013 184.293 284.286 182.9C286.596 181.507 288.485 179.582 289.951 177.125L301.557 179.82C299.357 184.697 296.038 188.693 291.601 191.81C287.165 194.89 282.196 196.43 276.696 196.43ZM261.076 162.77H292.316C291.95 160.13 291.015 157.747 289.511 155.62C288.045 153.457 286.193 151.752 283.956 150.505C281.756 149.222 279.336 148.58 276.696 148.58C274.093 148.58 271.673 149.203 269.436 150.45C267.236 151.697 265.403 153.402 263.936 155.565C262.506 157.692 261.553 160.093 261.076 162.77Z" fill="black"/>
<path d="M81.39 244H92.83V299H81.335L80.895 291.025C79.2817 293.848 77.1 296.122 74.35 297.845C71.6 299.568 68.355 300.43 64.615 300.43C60.5817 300.43 56.7867 299.678 53.23 298.175C49.6733 296.635 46.5383 294.508 43.825 291.795C41.1483 289.082 39.0583 285.965 37.555 282.445C36.0517 278.888 35.3 275.075 35.3 271.005C35.3 267.082 36.0333 263.397 37.5 259.95C38.9667 256.467 41.0017 253.423 43.605 250.82C46.2083 248.217 49.215 246.182 52.625 244.715C56.0717 243.212 59.7567 242.46 63.68 242.46C67.6767 242.46 71.1967 243.377 74.24 245.21C77.32 247.007 79.8683 249.317 81.885 252.14L81.39 244ZM64.34 289.375C67.5667 289.375 70.39 288.587 72.81 287.01C75.23 285.397 77.1 283.233 78.42 280.52C79.7767 277.807 80.455 274.8 80.455 271.5C80.455 268.163 79.7767 265.138 78.42 262.425C77.0633 259.712 75.175 257.567 72.755 255.99C70.3717 254.377 67.5667 253.57 64.34 253.57C61.15 253.57 58.235 254.377 55.595 255.99C52.955 257.603 50.865 259.767 49.325 262.48C47.785 265.193 47.015 268.2 47.015 271.5C47.015 274.837 47.8033 277.862 49.38 280.575C50.9933 283.252 53.1017 285.397 55.705 287.01C58.345 288.587 61.2233 289.375 64.34 289.375Z" fill="black"/>
<path d="M101.605 278.375V244H113.045V275.57C113.045 278.027 113.65 280.263 114.86 282.28C116.07 284.297 117.683 285.91 119.7 287.12C121.717 288.293 123.935 288.88 126.355 288.88C128.812 288.88 131.03 288.293 133.01 287.12C135.027 285.91 136.622 284.297 137.795 282.28C139.005 280.263 139.61 278.027 139.61 275.57V244H151.05L151.105 299H139.665L139.61 293.06C137.74 295.333 135.412 297.13 132.625 298.45C129.838 299.77 126.85 300.43 123.66 300.43C119.59 300.43 115.887 299.44 112.55 297.46C109.213 295.48 106.555 292.822 104.575 289.485C102.595 286.148 101.605 282.445 101.605 278.375Z" fill="black"/>
<path d="M204.228 216.5H213.5V298.45L204.228 299V290.915C202.432 293.775 200.085 296.085 197.188 297.845C194.292 299.568 190.9 300.43 187.013 300.43C183.017 300.43 179.277 299.678 175.793 298.175C172.31 296.672 169.23 294.6 166.553 291.96C163.913 289.283 161.842 286.203 160.338 282.72C158.835 279.237 158.083 275.497 158.083 271.5C158.083 267.503 158.835 263.763 160.338 260.28C161.842 256.76 163.913 253.68 166.553 251.04C169.23 248.363 172.31 246.273 175.793 244.77C179.277 243.267 183.017 242.515 187.013 242.515C190.9 242.515 194.292 243.395 197.188 245.155C200.085 246.878 202.432 249.152 204.228 251.975V216.5ZM187.123 289.375C190.35 289.375 193.173 288.587 195.593 287.01C198.013 285.397 199.883 283.233 201.203 280.52C202.56 277.807 203.238 274.8 203.238 271.5C203.238 268.163 202.56 265.138 201.203 262.425C199.847 259.712 197.958 257.567 195.538 255.99C193.155 254.377 190.35 253.57 187.123 253.57C183.933 253.57 181.018 254.377 178.378 255.99C175.775 257.603 173.685 259.767 172.108 262.48C170.568 265.193 169.798 268.2 169.798 271.5C169.798 274.837 170.587 277.862 172.163 280.575C173.777 283.252 175.885 285.397 178.488 287.01C181.128 288.587 184.007 289.375 187.123 289.375Z" fill="black"/>
<path d="M228.844 244H238V299.5L228.844 299V244Z" fill="black"/>
<path d="M276.677 300.43C271.617 300.43 266.997 299.128 262.817 296.525C258.674 293.922 255.355 290.438 252.862 286.075C250.405 281.675 249.177 276.817 249.177 271.5C249.177 267.467 249.892 263.708 251.322 260.225C252.752 256.705 254.714 253.625 257.207 250.985C259.737 248.308 262.67 246.218 266.007 244.715C269.344 243.212 272.9 242.46 276.677 242.46C281.737 242.46 286.339 243.762 290.482 246.365C294.662 248.968 297.98 252.47 300.437 256.87C302.93 261.27 304.177 266.147 304.177 271.5C304.177 275.497 303.462 279.237 302.032 282.72C300.602 286.203 298.622 289.283 296.092 291.96C293.599 294.6 290.684 296.672 287.347 298.175C284.047 299.678 280.49 300.43 276.677 300.43ZM276.677 288.99C279.72 288.99 282.452 288.183 284.872 286.57C287.292 284.957 289.199 282.83 290.592 280.19C292.022 277.513 292.737 274.617 292.737 271.5C292.737 268.31 292.004 265.377 290.537 262.7C289.107 260.023 287.182 257.897 284.762 256.32C282.342 254.707 279.647 253.9 276.677 253.9C273.67 253.9 270.939 254.707 268.482 256.32C266.062 257.933 264.137 260.078 262.707 262.755C261.314 265.432 260.617 268.347 260.617 271.5C260.617 274.763 261.35 277.715 262.817 280.355C264.284 282.995 266.227 285.103 268.647 286.68C271.104 288.22 273.78 288.99 276.677 288.99Z" fill="black"/>
<circle cx="233.5" cy="232.5" r="10.5" stroke="black" stroke-width="10"/>
</svg>
